<?xml version="1.0" ?><svg enable-background="new 0 0 512 512" id="Layer_1" version="1.1" viewBox="0 0 512 512" xml:space="preserve" xmlns="http://www.w3.org/2000/svg" xmlns:xlink="http://www.w3.org/1999/xlink"><path d="M407,142.5c-37.5-67.9-117.7-37.3-151,12.3c-33.3-49.6-113.5-80.2-151-12.3c-37.5,67.9,49.7,192.3,146,262.7  l5,3.6l5-3.6C357.3,334.8,444.5,210.4,407,142.5z" fill="#E854A8"/><linearGradient gradientUnits="userSpaceOnUse" id="SVGID_1_" x1="255.9999" x2="255.9999" y1="396.4834" y2="113.1787"><stop offset="0" style="stop-color:#FFFFFF;stop-opacity:0"/><stop offset="0.8773" style="stop-color:#FFFFFF;stop-opacity:0.5264"/><stop offset="1" style="stop-color:#FFFFFF;stop-opacity:0.6"/></linearGradient><path d="M256,396.5c-94.3-69.3-175.8-188.4-142.2-249.2c12.3-22.3,30.8-34.2,53.4-34.2  c28.8,0,61.9,19.4,80.6,47.2l8.3,12.4l8.3-12.4c18.7-27.8,51.8-47.2,80.6-47.2c22.6,0,41,11.8,53.4,34.2  C431.8,208.1,350.3,327.1,256,396.5z" fill="url(#SVGID_1_)"/></svg>